<svg width="170" height="292" viewBox="0 0 170 292" fill="none" xmlns="http://www.w3.org/2000/svg">
<path d="M84.997 0C38.0473 0 0 38.8749 0 86.8105C0 134.759 84.997 292 84.997 292C84.997 292 170 134.759 170 86.8105C170 38.8749 131.929 0 84.997 0Z" fill="#D32F2F"/>
<path d="M86 150.5C74.0417 147.51 64.2187 140.57 56.5312 129.68C48.8437 118.789 45 106.852 45 93.8687V63.375L86 48L127 63.375V93.8687C127 106.852 123.156 118.789 115.469 129.68C107.781 140.57 97.9583 147.51 86 150.5ZM86 142.556C95.8229 139.31 103.831 133.182 110.023 124.17C116.216 115.159 119.312 105.058 119.312 93.8687V68.7562L86 56.2L52.6875 68.7562V93.8687C52.6875 105.058 55.7839 115.159 61.9766 124.17C68.1693 133.182 76.1771 139.31 86 142.556Z" fill="white"/>
<path d="M69.75 102.789C69.75 105.442 70.3438 107.937 71.5313 110.274C72.7188 112.611 74.375 114.558 76.5 116.116C76.3333 115.611 76.2083 115.095 76.125 114.568C76.0417 114.042 76 113.526 76 113.021C76 111.674 76.25 110.411 76.75 109.232C77.25 108.053 77.9792 106.979 78.9375 106.011L86 99L93.0625 106.011C94.0208 106.979 94.75 108.053 95.25 109.232C95.75 110.411 96 111.674 96 113.021C96 113.526 95.9583 114.042 95.875 114.568C95.7917 115.095 95.6667 115.611 95.5 116.116C97.625 114.558 99.2812 112.611 100.469 110.274C101.656 107.937 102.25 105.442 102.25 102.789C102.25 100.516 101.771 98.2947 100.813 96.1263C99.8542 93.9579 98.4792 91.9684 96.6875 90.1579C95.8125 90.7895 94.8958 91.2842 93.9375 91.6421C92.9792 92 92.0208 92.1789 91.0625 92.1789C88.5208 92.1789 86.4167 91.3053 84.75 89.5579C83.0833 87.8105 82.25 85.6105 82.25 82.9579V81.6947C80.3333 83.0842 78.6042 84.6211 77.0625 86.3053C75.5208 87.9895 74.2083 89.7474 73.125 91.5789C72.0417 93.4105 71.2083 95.2842 70.625 97.2C70.0417 99.1158 69.75 100.979 69.75 102.789ZM86 104.305L81.5625 108.726C80.9792 109.316 80.5313 109.968 80.2188 110.684C79.9063 111.4 79.75 112.179 79.75 113.021C79.75 114.747 80.3542 116.211 81.5625 117.411C82.7708 118.611 84.25 119.211 86 119.211C87.75 119.211 89.2292 118.611 90.4375 117.411C91.6458 116.211 92.25 114.747 92.25 113.021C92.25 112.179 92.0938 111.4 91.7813 110.684C91.4688 109.968 91.0208 109.316 90.4375 108.726L86 104.305ZM86 75V83.3368C86 84.7684 86.4896 85.9684 87.4688 86.9368C88.4479 87.9053 89.6458 88.3895 91.0625 88.3895C91.8125 88.3895 92.5104 88.2316 93.1562 87.9158C93.8021 87.6 94.375 87.1263 94.875 86.4947L96 85.1053C99.0833 86.8737 101.521 89.3368 103.313 92.4947C105.104 95.6526 106 99.0842 106 102.789C106 108.432 104.063 113.211 100.188 117.126C96.3125 121.042 91.5833 123 86 123C80.4167 123 75.6875 121.042 71.8125 117.126C67.9375 113.211 66 108.432 66 102.789C66 97.4 67.7917 92.2105 71.375 87.2211C74.9583 82.2316 79.8333 78.1579 86 75Z" fill="white"/>
</svg>
