<svg width="170" height="292" viewBox="0 0 170 292" fill="none" xmlns="http://www.w3.org/2000/svg">
<path d="M84.997 0C38.0473 0 0 38.8749 0 86.8105C0 134.759 84.997 292 84.997 292C84.997 292 170 134.759 170 86.8105C170 38.8749 131.929 0 84.997 0Z" fill="#F57C00"/>
<path d="M44.5 145.625V61.0625C44.5 59.0125 45.2687 57.2187 46.8062 55.6812C48.3437 54.1437 50.1375 53.375 52.1875 53.375H86.6531C88.7031 53.375 90.4969 54.1437 92.0344 55.6812C93.5719 57.2187 94.3406 59.0125 94.3406 61.0625V97.9625H102.669C104.431 97.9625 105.939 98.5899 107.193 99.8447C108.448 101.099 109.075 102.607 109.075 104.369V132.428C109.075 134.28 109.737 135.832 111.061 137.084C112.385 138.336 113.986 138.962 115.866 138.962C117.745 138.962 119.346 138.336 120.67 137.084C121.994 135.832 122.656 134.28 122.656 132.428V94.6312C121.717 95.1437 120.734 95.5281 119.709 95.7844C118.684 96.0406 117.659 96.1687 116.634 96.1687C113.262 96.1687 110.412 95.0045 108.083 92.6761C105.755 90.3476 104.591 87.4972 104.591 84.125C104.591 81.425 105.359 78.9987 106.897 76.8462C108.434 74.6946 110.484 73.2771 113.047 72.5937L100.875 60.4219L105.487 55.9375L125.091 75.5406C126.286 76.7365 127.247 78.0391 127.973 79.4484C128.699 80.8578 129.062 82.4167 129.062 84.125V132.428C129.062 136.123 127.789 139.247 125.242 141.798C122.696 144.349 119.578 145.625 115.889 145.625C112.2 145.625 109.075 144.349 106.512 141.798C103.95 139.247 102.669 136.123 102.669 132.428V104.369H94.3406V145.625H44.5ZM52.1875 90.275H86.6531V61.0625H52.1875V90.275ZM116.634 89.7625C118.172 89.7625 119.496 89.2073 120.606 88.0969C121.717 86.9865 122.272 85.6625 122.272 84.125C122.272 82.5875 121.717 81.2635 120.606 80.1531C119.496 79.0427 118.172 78.4875 116.634 78.4875C115.097 78.4875 113.773 79.0427 112.662 80.1531C111.552 81.2635 110.997 82.5875 110.997 84.125C110.997 85.6625 111.552 86.9865 112.662 88.0969C113.773 89.2073 115.097 89.7625 116.634 89.7625ZM52.1875 137.937H86.6531V97.9625H52.1875V137.937Z" fill="white"/>
</svg>
