<svg width="170" height="292" viewBox="0 0 170 292" fill="none" xmlns="http://www.w3.org/2000/svg">
<path d="M84.997 0C38.0473 0 0 38.8749 0 86.8105C0 134.759 84.997 292 84.997 292C84.997 292 170 134.759 170 86.8105C170 38.8749 131.929 0 84.997 0Z" fill="#388E3C"/>
<path d="M60.7448 154.622C58.2002 154.622 56.0311 153.716 54.2373 151.904C52.4436 150.093 51.5467 147.915 51.5467 145.37C51.5467 142.825 52.4525 140.656 54.2642 138.863C56.0759 137.069 58.254 136.172 60.7986 136.172C63.3432 136.172 65.5123 137.078 67.3061 138.889C69.0998 140.701 69.9967 142.879 69.9967 145.424C69.9967 147.968 69.0908 150.138 67.2792 151.931C65.4675 153.725 63.2893 154.622 60.7448 154.622ZM111.995 154.622C109.45 154.622 107.281 153.716 105.487 151.904C103.694 150.093 102.797 147.915 102.797 145.37C102.797 142.825 103.703 140.656 105.514 138.863C107.326 137.069 109.504 136.172 112.049 136.172C114.593 136.172 116.762 137.078 118.556 138.889C120.35 140.701 121.247 142.879 121.247 145.424C121.247 147.968 120.341 150.138 118.529 151.931C116.717 153.725 114.539 154.622 111.995 154.622ZM54.1092 70.0594L68.2029 99.2719H105.103L121.119 70.0594H54.1092ZM50.2654 62.3719H125.74C127.702 62.3719 129.195 63.2688 130.218 65.0625C131.241 66.8563 131.24 68.65 130.215 70.4438L112.919 101.578C111.979 103.201 110.759 104.504 109.259 105.486C107.759 106.468 106.118 106.959 104.334 106.959H65.5123L58.3373 120.284H121.247V127.972H59.4904C55.9029 127.972 53.3191 126.776 51.7389 124.384C50.1587 121.993 50.18 119.302 51.8029 116.313L60.0029 101.194L40.5279 59.9375H30.5342V52.25H45.5248L50.2654 62.3719Z" fill="white"/>
</svg>
