<svg width="170" height="292" viewBox="0 0 170 292" fill="none" xmlns="http://www.w3.org/2000/svg">
<path d="M84.997 0C38.0473 0 0 38.8749 0 86.8105C0 134.759 84.997 292 84.997 292C84.997 292 170 134.759 170 86.8105C170 38.8749 131.929 0 84.997 0Z" fill="#009688"/>
<path d="M80.375 124.875H90.625V112.063H103.437V101.813H90.625V89.0002H80.375V101.813H67.5625V112.063H80.375V124.875ZM85.5 160.622C73.5417 157.632 63.7187 150.692 56.0312 139.802C48.3437 128.911 44.5 116.974 44.5 103.991V73.4971L85.5 58.1221L126.5 73.4971V103.991C126.5 116.974 122.656 128.911 114.969 139.802C107.281 150.692 97.4583 157.632 85.5 160.622ZM85.5 152.678C95.3229 149.432 103.331 143.304 109.523 134.292C115.716 125.281 118.812 115.18 118.812 103.991V78.8783L85.5 66.3221L52.1875 78.8783V103.991C52.1875 115.18 55.2839 125.281 61.4766 134.292C67.6693 143.304 75.6771 149.432 85.5 152.678Z" fill="white"/>
</svg>
