<svg width="170" height="292" viewBox="0 0 170 292" fill="none" xmlns="http://www.w3.org/2000/svg">
<path d="M84.997 0C38.0473 0 0 38.8749 0 86.8105C0 134.759 84.997 292 84.997 292C84.997 292 170 134.759 170 86.8105C170 38.8749 131.929 0 84.997 0Z" fill="#00BFA5"/>
<path d="M81.6562 170.875V146.916L74.6094 153.962L69.1 148.581L85.5 132.181L101.9 148.581L96.5187 153.962L89.3437 146.916V170.875H81.6562ZM51.4187 130.9L46.0375 125.391L53.0844 118.344H29.125V110.656H53.0844L46.0375 103.481L51.4187 98.1L67.8187 114.5L51.4187 130.9ZM119.709 130.9L103.309 114.5L119.709 98.1L125.091 103.481L118.044 110.656H141.875V118.344H118.044L125.091 125.391L119.709 130.9ZM85.5 120.906C83.7062 120.906 82.1901 120.287 80.9516 119.048C79.713 117.81 79.0937 116.294 79.0937 114.5C79.0937 112.706 79.713 111.147 80.9516 109.823C82.1901 108.499 83.7062 107.837 85.5 107.837C87.3792 107.837 88.9594 108.478 90.2406 109.759C91.5219 111.041 92.1625 112.621 92.1625 114.5C92.1625 116.294 91.5005 117.81 90.1766 119.048C88.8526 120.287 87.2937 120.906 85.5 120.906ZM85.5 96.6906L69.1 80.2906L74.6094 74.9094L81.6562 81.9562V58.125H89.3437V81.9562L96.5187 74.9094L101.9 80.2906L85.5 96.6906Z" fill="white"/>
</svg>
