<svg width="170" height="292" viewBox="0 0 170 292" fill="none" xmlns="http://www.w3.org/2000/svg">
<path d="M84.997 0C38.0473 0 0 38.8749 0 86.8105C0 134.759 84.997 292 84.997 292C84.997 292 170 134.759 170 86.8105C170 38.8749 131.929 0 84.997 0Z" fill="#7B1FA2"/>
<path d="M79.7344 125.253H91.2656V105.266H111.253V93.7344H91.2656V73.7469H79.7344V93.7344H59.7469V105.266H79.7344V125.253ZM47.0625 145.625C45.0125 145.625 43.2187 144.856 41.6812 143.319C40.1437 141.781 39.375 139.987 39.375 137.937V61.0625C39.375 59.0125 40.1437 57.2187 41.6812 55.6812C43.2187 54.1437 45.0125 53.375 47.0625 53.375H123.937C125.987 53.375 127.781 54.1437 129.319 55.6812C130.856 57.2187 131.625 59.0125 131.625 61.0625V137.937C131.625 139.987 130.856 141.781 129.319 143.319C127.781 144.856 125.987 145.625 123.937 145.625H47.0625ZM47.0625 137.937H123.937V61.0625H47.0625V137.937Z" fill="white"/>
</svg>
