<svg width="170" height="292" viewBox="0 0 170 292" fill="none" xmlns="http://www.w3.org/2000/svg">
<path d="M84.997 0C38.0473 0 0 38.8749 0 86.8105C0 134.759 84.997 292 84.997 292C84.997 292 170 134.759 170 86.8105C170 38.8749 131.929 0 84.997 0Z" fill="#303F9F"/>
<path d="M71.9187 119.772L85.5 109.778L98.6969 119.772L93.1875 103.628L106.769 93.8908H90.3687L85.5 77.8752L80.6312 93.8908H64.2312L77.5562 103.628L71.9187 119.772ZM85.5 154.622C73.5417 151.632 63.7187 144.692 56.0312 133.802C48.3437 122.911 44.5 110.974 44.5 97.9908V67.4971L85.5 52.1221L126.5 67.4971V97.9908C126.5 110.974 122.656 122.911 114.969 133.802C107.281 144.692 97.4583 151.632 85.5 154.622ZM85.5 146.678C95.3229 143.432 103.331 137.304 109.523 128.292C115.716 119.281 118.812 109.18 118.812 97.9908V72.8783L85.5 60.3221L52.1875 72.8783V97.9908C52.1875 109.18 55.2839 119.281 61.4766 128.292C67.6693 137.304 75.6771 143.432 85.5 146.678Z" fill="white"/>
</svg>
