<svg width="170" height="292" viewBox="0 0 170 292" fill="none" xmlns="http://www.w3.org/2000/svg">
<path d="M84.997 0C38.0473 0 0 38.8749 0 86.8105C0 134.759 84.997 292 84.997 292C84.997 292 170 134.759 170 86.8105C170 38.8749 131.929 0 84.997 0Z" fill="#C2185B"/>
<path d="M85.5 165.622C73.5417 162.632 63.7187 155.692 56.0312 144.802C48.3437 133.911 44.5 121.974 44.5 108.991V78.4971L85.5 63.1221L126.5 78.4971V108.991C126.5 121.974 122.656 133.911 114.969 144.802C107.281 155.692 97.4583 162.632 85.5 165.622ZM85.5 100.15L54.2375 124.494C56.1167 130.644 58.9995 136.217 62.8859 141.214C66.7724 146.211 71.3208 150.29 76.5312 153.45V131.156H94.4687V153.45C99.6792 150.29 104.228 146.211 108.114 141.214C112.001 136.217 114.883 130.644 116.762 124.494L85.5 100.15ZM85.5 71.3221L52.1875 83.8783V108.991C52.1875 110.101 52.2302 111.297 52.3156 112.578C52.401 113.86 52.5292 115.055 52.7 116.166L85.5 90.5408L118.3 116.166C118.471 115.055 118.599 113.86 118.684 112.578C118.77 111.297 118.812 110.101 118.812 108.991V83.8783L85.5 71.3221Z" fill="white"/>
</svg>
