<svg width="170" height="292" viewBox="0 0 170 292" fill="none" xmlns="http://www.w3.org/2000/svg">
<path d="M84.997 0C38.0473 0 0 38.8749 0 86.8105C0 134.759 84.997 292 84.997 292C84.997 292 170 134.759 170 86.8105C170 38.8749 131.929 0 84.997 0Z" fill="#0288D1"/>
<path d="M80.8875 96.8437C75.7625 96.8437 70.6802 97.6766 65.6406 99.3422C60.601 101.008 56.0312 103.335 51.9312 106.325L57.5687 157.062H113.431L119.453 101.969H113.303C110.143 101.969 107.239 101.742 104.591 101.29C101.943 100.838 98.3125 99.9538 93.7 98.6375C91.5646 98.0396 89.4505 97.5911 87.3578 97.2922C85.2651 96.9932 83.1083 96.8437 80.8875 96.8437ZM51.0344 97.7406C55.3906 95.0073 60.1526 92.9146 65.3203 91.4625C70.488 90.0104 75.6771 89.2417 80.8875 89.1562C83.45 89.1562 85.9911 89.3271 88.5109 89.6687C91.0307 90.0104 93.4437 90.5229 95.75 91.2062C100.117 92.4021 103.458 93.2135 105.773 93.6406C108.087 94.0677 110.554 94.2812 113.175 94.2812H120.35L123.041 69.9375H47.9594L51.0344 97.7406ZM57.5687 164.75C55.6042 164.75 53.8813 164.112 52.4002 162.837C50.9182 161.562 50.0786 159.936 49.8812 157.959L39.375 62.25H131.625L121.119 157.959C120.921 159.936 120.082 161.562 118.6 162.837C117.119 164.112 115.396 164.75 113.431 164.75H57.5687ZM80.8875 157.062H113.431H57.5687H80.8875Z" fill="white"/>
</svg>
